<svg width="210" height="35" viewBox="0 0 210 35" fill="none" xmlns="http://www.w3.org/2000/svg">
<rect opacity="0.1" width="210" height="35" rx="17.5" fill="white"/>
<path opacity="0.8" d="M49.8 11.44L54.305 23H52.724L51.483 19.736H46.281L45.074 23H43.51L47.964 11.44H49.8ZM46.774 18.41H50.99L48.865 12.783L46.774 18.41ZM55.4153 23V14.908H56.7243V16.03C56.985 15.6107 57.359 15.2933 57.8463 15.078C58.345 14.8513 58.855 14.738 59.3763 14.738C60.317 14.738 61.065 14.9873 61.6203 15.486C62.1756 15.9733 62.4533 16.693 62.4533 17.645V23H61.0933V17.849C61.0933 17.2937 60.9346 16.8403 60.6173 16.489C60.3113 16.1377 59.807 15.962 59.1043 15.962C58.4583 15.962 57.9086 16.1603 57.4553 16.557C57.002 16.9537 56.7753 17.4863 56.7753 18.155V23H55.4153ZM63.7732 20.722L65.0482 20.501C65.1842 21.011 65.4335 21.3907 65.7962 21.64C66.1589 21.878 66.6462 21.997 67.2582 21.997C67.8702 21.997 68.3349 21.895 68.6522 21.691C68.9695 21.4757 69.1282 21.1923 69.1282 20.841C69.1282 20.4897 69.0035 20.2233 68.7542 20.042C68.5162 19.8493 68.1082 19.702 67.5302 19.6L66.4762 19.413C65.7282 19.277 65.1389 19.039 64.7082 18.699C64.2775 18.3477 64.0622 17.8207 64.0622 17.118C64.0622 16.4153 64.3455 15.843 64.9122 15.401C65.4902 14.959 66.2495 14.738 67.1902 14.738C68.1762 14.738 68.9355 14.9703 69.4682 15.435C70.0009 15.8997 70.3239 16.438 70.4372 17.05L69.1962 17.322C69.0829 16.9253 68.8675 16.591 68.5502 16.319C68.2442 16.047 67.7795 15.911 67.1562 15.911C66.6122 15.911 66.1815 16.0187 65.8642 16.234C65.5469 16.4493 65.3882 16.7327 65.3882 17.084C65.3882 17.4693 65.5242 17.7413 65.7962 17.9C66.0682 18.0473 66.4422 18.1607 66.9182 18.24L67.9552 18.427C68.8392 18.5857 69.4739 18.8633 69.8592 19.26C70.2559 19.6453 70.4542 20.161 70.4542 20.807C70.4542 21.4983 70.1822 22.065 69.6382 22.507C69.0942 22.949 68.2895 23.17 67.2242 23.17C66.2835 23.17 65.5072 22.9717 64.8952 22.575C64.2945 22.1783 63.9205 21.5607 63.7732 20.722ZM70.699 14.908H72.11L74.167 21.317L76.207 14.908H77.907L79.964 21.402L82.055 14.908H83.381L80.627 23H79.182L77.023 16.149L74.847 23H73.419L70.699 14.908ZM90.9384 19.192H84.9544C84.9997 20.0987 85.2491 20.79 85.7024 21.266C86.1557 21.742 86.7337 21.98 87.4364 21.98C88.0711 21.98 88.5641 21.8327 88.9154 21.538C89.2667 21.2433 89.4991 20.9033 89.6124 20.518L90.8874 20.739C90.6947 21.4983 90.2981 22.0933 89.6974 22.524C89.0967 22.9547 88.3261 23.17 87.3854 23.17C86.2294 23.17 85.3057 22.796 84.6144 22.048C83.9344 21.2887 83.5944 20.2573 83.5944 18.954C83.5944 18.2853 83.6907 17.6903 83.8834 17.169C84.0874 16.6363 84.3594 16.1943 84.6994 15.843C85.0394 15.4803 85.4417 15.2083 85.9064 15.027C86.3824 14.8343 86.8867 14.738 87.4194 14.738C88.4961 14.738 89.3517 15.078 89.9864 15.758C90.6211 16.438 90.9384 17.3957 90.9384 18.631V19.192ZM87.4024 15.911C86.7677 15.911 86.2351 16.1093 85.8044 16.506C85.3851 16.9027 85.1187 17.424 85.0054 18.07H89.5784C89.5444 17.4467 89.3517 16.931 89.0004 16.523C88.6491 16.115 88.1164 15.911 87.4024 15.911ZM92.2402 23V14.908H93.5322V16.081C93.8042 15.6163 94.1669 15.3047 94.6202 15.146C95.0736 14.9873 95.4986 14.908 95.8952 14.908H96.6262V16.217H96.0142C95.7422 16.217 95.4646 16.2453 95.1812 16.302C94.8979 16.3587 94.6372 16.4437 94.3992 16.557C94.1726 16.6703 93.9856 16.8177 93.8382 16.999C93.6909 17.1803 93.6172 17.3957 93.6172 17.645V23H92.2402ZM100.64 23V16.166H99.0761V14.908H100.64V14.194C100.64 13.14 100.901 12.4203 101.422 12.035C101.955 11.6383 102.703 11.44 103.666 11.44H104.669V12.664H103.717C103.105 12.664 102.663 12.7943 102.391 13.055C102.13 13.3043 102 13.7293 102 14.33V14.908H104.482V16.166H102V23H100.64ZM105.256 13.344V11.712H106.803V13.344H105.256ZM105.341 23V14.908H106.701V23H105.341ZM110.755 23L107.542 14.908H108.987L111.554 21.572L114.138 14.908H115.532L112.234 23H110.755ZM123 19.192H117.016C117.061 20.0987 117.311 20.79 117.764 21.266C118.217 21.742 118.795 21.98 119.498 21.98C120.133 21.98 120.626 21.8327 120.977 21.538C121.328 21.2433 121.561 20.9033 121.674 20.518L122.949 20.739C122.756 21.4983 122.36 22.0933 121.759 22.524C121.158 22.9547 120.388 23.17 119.447 23.17C118.291 23.17 117.367 22.796 116.676 22.048C115.996 21.2887 115.656 20.2573 115.656 18.954C115.656 18.2853 115.752 17.6903 115.945 17.169C116.149 16.6363 116.421 16.1943 116.761 15.843C117.101 15.4803 117.503 15.2083 117.968 15.027C118.444 14.8343 118.948 14.738 119.481 14.738C120.558 14.738 121.413 15.078 122.048 15.758C122.683 16.438 123 17.3957 123 18.631V19.192ZM119.464 15.911C118.829 15.911 118.297 16.1093 117.866 16.506C117.447 16.9027 117.18 17.424 117.067 18.07H121.64C121.606 17.4467 121.413 16.931 121.062 16.523C120.711 16.115 120.178 15.911 119.464 15.911ZM133.139 26.298V22.048C132.89 22.422 132.544 22.7053 132.102 22.898C131.672 23.0793 131.167 23.17 130.589 23.17C129.479 23.17 128.566 22.8017 127.852 22.065C127.138 21.3283 126.781 20.297 126.781 18.971C126.781 17.6563 127.144 16.625 127.869 15.877C128.595 15.1177 129.53 14.738 130.674 14.738C131.207 14.738 131.694 14.8457 132.136 15.061C132.578 15.265 132.93 15.5483 133.19 15.911V14.908H134.516V26.298H133.139ZM133.139 19.26V18.546C133.139 17.662 132.896 17.0103 132.408 16.591C131.921 16.1717 131.343 15.962 130.674 15.962C129.892 15.962 129.275 16.2283 128.821 16.761C128.368 17.2937 128.141 18.019 128.141 18.937C128.141 19.7983 128.357 20.518 128.787 21.096C129.218 21.6627 129.836 21.946 130.64 21.946C131.456 21.946 132.074 21.6853 132.493 21.164C132.924 20.6427 133.139 20.008 133.139 19.26ZM141.982 23V21.81C141.721 22.252 141.336 22.592 140.826 22.83C140.327 23.0567 139.817 23.17 139.296 23.17C138.355 23.17 137.619 22.9263 137.086 22.439C136.553 21.9403 136.287 21.215 136.287 20.263V14.908H137.647V20.059C137.647 20.6143 137.794 21.0677 138.089 21.419C138.395 21.7703 138.888 21.946 139.568 21.946C140.214 21.946 140.764 21.7477 141.217 21.351C141.67 20.9543 141.897 20.4217 141.897 19.753V14.908H143.257V23H141.982ZM151.956 19.192H145.972C146.017 20.0987 146.266 20.79 146.72 21.266C147.173 21.742 147.751 21.98 148.454 21.98C149.088 21.98 149.581 21.8327 149.933 21.538C150.284 21.2433 150.516 20.9033 150.63 20.518L151.905 20.739C151.712 21.4983 151.315 22.0933 150.715 22.524C150.114 22.9547 149.343 23.17 148.403 23.17C147.247 23.17 146.323 22.796 145.632 22.048C144.952 21.2887 144.612 20.2573 144.612 18.954C144.612 18.2853 144.708 17.6903 144.901 17.169C145.105 16.6363 145.377 16.1943 145.717 15.843C146.057 15.4803 146.459 15.2083 146.924 15.027C147.4 14.8343 147.904 14.738 148.437 14.738C149.513 14.738 150.369 15.078 151.004 15.758C151.638 16.438 151.956 17.3957 151.956 18.631V19.192ZM148.42 15.911C147.785 15.911 147.252 16.1093 146.822 16.506C146.402 16.9027 146.136 17.424 146.023 18.07H150.596C150.562 17.4467 150.369 16.931 150.018 16.523C149.666 16.115 149.134 15.911 148.42 15.911ZM152.833 20.722L154.108 20.501C154.244 21.011 154.493 21.3907 154.856 21.64C155.218 21.878 155.706 21.997 156.318 21.997C156.93 21.997 157.394 21.895 157.712 21.691C158.029 21.4757 158.188 21.1923 158.188 20.841C158.188 20.4897 158.063 20.2233 157.814 20.042C157.576 19.8493 157.168 19.702 156.59 19.6L155.536 19.413C154.788 19.277 154.198 19.039 153.768 18.699C153.337 18.3477 153.122 17.8207 153.122 17.118C153.122 16.4153 153.405 15.843 153.972 15.401C154.55 14.959 155.309 14.738 156.25 14.738C157.236 14.738 157.995 14.9703 158.528 15.435C159.06 15.8997 159.383 16.438 159.497 17.05L158.256 17.322C158.142 16.9253 157.927 16.591 157.61 16.319C157.304 16.047 156.839 15.911 156.216 15.911C155.672 15.911 155.241 16.0187 154.924 16.234C154.606 16.4493 154.448 16.7327 154.448 17.084C154.448 17.4693 154.584 17.7413 154.856 17.9C155.128 18.0473 155.502 18.1607 155.978 18.24L157.015 18.427C157.899 18.5857 158.533 18.8633 158.919 19.26C159.315 19.6453 159.514 20.161 159.514 20.807C159.514 21.4983 159.242 22.065 158.698 22.507C158.154 22.949 157.349 23.17 156.284 23.17C155.343 23.17 154.567 22.9717 153.955 22.575C153.354 22.1783 152.98 21.5607 152.833 20.722ZM165.315 23H164.057C162.992 23 162.267 22.7733 161.881 22.32C161.507 21.8667 161.32 21.1583 161.32 20.195V16.166H159.909V14.908H161.32V12.749H162.697V14.908H165.23V16.166H162.697V20.178C162.697 20.756 162.811 21.164 163.037 21.402C163.275 21.6287 163.632 21.742 164.108 21.742H165.315V23ZM166.339 13.344V11.712H167.886V13.344H166.339ZM166.424 23V14.908H167.784V23H166.424ZM173.062 23.17C172.507 23.17 171.985 23.0793 171.498 22.898C171.022 22.7053 170.614 22.4333 170.274 22.082C169.934 21.7193 169.662 21.2717 169.458 20.739C169.265 20.2063 169.169 19.6057 169.169 18.937C169.169 17.5997 169.532 16.5683 170.257 15.843C170.982 15.1063 171.917 14.738 173.062 14.738C174.195 14.738 175.113 15.1063 175.816 15.843C176.519 16.5683 176.87 17.5997 176.87 18.937C176.87 20.2517 176.519 21.2887 175.816 22.048C175.113 22.796 174.195 23.17 173.062 23.17ZM173.062 21.963C173.878 21.963 174.49 21.6967 174.898 21.164C175.306 20.62 175.51 19.8777 175.51 18.937C175.51 17.985 175.306 17.2483 174.898 16.727C174.49 16.2057 173.878 15.945 173.062 15.945C172.257 15.945 171.634 16.2057 171.192 16.727C170.75 17.2483 170.529 17.985 170.529 18.937C170.529 19.8777 170.756 20.62 171.209 21.164C171.662 21.6967 172.28 21.963 173.062 21.963ZM178.246 23V14.908H179.555V16.03C179.815 15.6107 180.189 15.2933 180.677 15.078C181.175 14.8513 181.685 14.738 182.207 14.738C183.147 14.738 183.895 14.9873 184.451 15.486C185.006 15.9733 185.284 16.693 185.284 17.645V23H183.924V17.849C183.924 17.2937 183.765 16.8403 183.448 16.489C183.142 16.1377 182.637 15.962 181.935 15.962C181.289 15.962 180.739 16.1603 180.286 16.557C179.832 16.9537 179.606 17.4863 179.606 18.155V23H178.246ZM186.604 20.722L187.879 20.501C188.015 21.011 188.264 21.3907 188.627 21.64C188.989 21.878 189.477 21.997 190.089 21.997C190.701 21.997 191.165 21.895 191.483 21.691C191.8 21.4757 191.959 21.1923 191.959 20.841C191.959 20.4897 191.834 20.2233 191.585 20.042C191.347 19.8493 190.939 19.702 190.361 19.6L189.307 19.413C188.559 19.277 187.969 19.039 187.539 18.699C187.108 18.3477 186.893 17.8207 186.893 17.118C186.893 16.4153 187.176 15.843 187.743 15.401C188.321 14.959 189.08 14.738 190.021 14.738C191.007 14.738 191.766 14.9703 192.299 15.435C192.831 15.8997 193.154 16.438 193.268 17.05L192.027 17.322C191.913 16.9253 191.698 16.591 191.381 16.319C191.075 16.047 190.61 15.911 189.987 15.911C189.443 15.911 189.012 16.0187 188.695 16.234C188.377 16.4493 188.219 16.7327 188.219 17.084C188.219 17.4693 188.355 17.7413 188.627 17.9C188.899 18.0473 189.273 18.1607 189.749 18.24L190.786 18.427C191.67 18.5857 192.304 18.8633 192.69 19.26C193.086 19.6453 193.285 20.161 193.285 20.807C193.285 21.4983 193.013 22.065 192.469 22.507C191.925 22.949 191.12 23.17 190.055 23.17C189.114 23.17 188.338 22.9717 187.726 22.575C187.125 22.1783 186.751 21.5607 186.604 20.722Z" fill="white"/>
<g opacity="0.8" clip-path="url(#clip0_1_149)">
<path d="M33 14.36V23C33 23.1989 32.921 23.3897 32.7803 23.5303C32.6397 23.671 32.4489 23.75 32.25 23.75C32.0511 23.75 31.8603 23.671 31.7197 23.5303C31.579 23.3897 31.5 23.1989 31.5 23V16.814L25.95 19.466C25.3648 19.8114 24.6968 19.9913 24.0172 19.9865C23.3046 19.9876 22.605 19.7961 21.9922 19.4323L16.4572 16.7975C16.0222 16.5635 15.6576 16.2174 15.4014 15.795C15.1452 15.3726 15.0067 14.8894 15.0003 14.3954C14.9939 13.9015 15.1197 13.4148 15.3649 12.9859C15.61 12.557 15.9654 12.2015 16.3942 11.9563C16.4145 11.9443 16.4362 11.933 16.4572 11.9225L22.05 9.25401C22.6538 8.90726 23.3391 8.72761 24.0353 8.73354C24.7316 8.73947 25.4137 8.93077 26.0115 9.28776L31.5427 11.9225C31.9792 12.164 32.3439 12.5167 32.5999 12.9449C32.8558 13.373 32.9939 13.8612 33 14.36ZM24.0165 21.485C23.0569 21.4871 22.1138 21.2357 21.2827 20.756L18 19.1893V21.2143C18.0004 22.0149 18.2568 22.7944 18.7316 23.4391C19.2064 24.0838 19.8748 24.5598 20.6392 24.7978C21.7315 25.1114 22.8637 25.2637 24 25.25C25.1364 25.2628 26.2686 25.1094 27.3607 24.7948C28.1252 24.5568 28.7936 24.0808 29.2684 23.4361C29.7432 22.7914 29.9996 22.0119 30 21.2113V19.193L26.6557 20.7905C25.853 21.2517 24.9423 21.4919 24.0165 21.4865V21.485Z" fill="white"/>
</g>
<defs>
<clipPath id="clip0_1_149">
<rect width="18" height="18" fill="white" transform="translate(15 8)"/>
</clipPath>
</defs>
</svg>
